<?xml version="1.0" standalone="no"?>
<!DOCTYPE svg PUBLIC "-//W3C//DTD SVG 20010904//EN"
 "http://www.w3.org/TR/2001/REC-SVG-20010904/DTD/svg10.dtd">
<svg version="1.0" xmlns="http://www.w3.org/2000/svg"
 width="700.000000pt" height="700.000000pt" viewBox="0 0 700.000000 700.000000"
 preserveAspectRatio="xMidYMid meet">
<metadata>
Created by potrace 1.11, written by Peter Selinger 2001-2013
</metadata>
<g transform="translate(0.000000,700.000000) scale(0.100000,-0.100000)"
fill="#000000" stroke="none">
<path d="M235 6515 c-103 -36 -175 -152 -162 -260 8 -58 3023 -6088 3065
-6128 90 -85 253 -79 340 12 15 16 650 1275 1411 2798 1845 3689 1650 3291
1645 3358 -9 135 -113 230 -250 228 -37 -1 -75 -8 -95 -19 -25 -12 -3315
-2202 -4173 -2778 -55 -36 -104 -65 -109 -63 -5 1 -319 621 -697 1376 -530
1058 -697 1382 -726 1412 -65 67 -165 92 -249 64z m4253 -3302 c-649 -1297
-1182 -2359 -1183 -2361 -1 -1 -78 150 -170 335 -92 186 -356 715 -586 1176
-231 461 -419 842 -419 847 0 6 26 27 58 47 31 21 62 42 67 46 6 5 406 271
890 593 484 321 887 588 895 594 52 37 1623 1080 1625 1080 2 0 -528 -1061
-1177 -2357z"/>
</g>
</svg>
